<svg xmlns="http://www.w3.org/2000/svg" xmlns:xlink="http://www.w3.org/1999/xlink" width="140" zoomAndPan="magnify" viewBox="0 0 100 44" height="44" preserveAspectRatio="xMidYMid meet" version="1.0"><defs><g/></defs><rect x="-37.5" width="140" fill="#ffffff" y="-37.499999" height="44" fill-opacity="1"/><rect x="-37.5" width="140" fill="#ffffff" y="-37.499999" height="44" fill-opacity="1"/><g fill="#c15b75" fill-opacity="1"><g transform="translate(3.493778, 28.952933)"><g><path d="M 5.160156 0.953125 C 8.5 0.953125 10.886719 -1.476562 10.886719 -4.863281 C 10.886719 -7.726562 8 -9.726562 8.066406 -11.75 C 8.066406 -12.886719 8.726562 -13.339844 9.476562 -13.339844 C 10.773438 -13.339844 10.636719 -11.726562 10.203125 -11.179688 C 9.886719 -10.773438 10.886719 -10.023438 11.15625 -10.40625 C 12.386719 -11.042969 13.179688 -12.316406 13.179688 -13.679688 C 13.179688 -15.316406 12.15625 -16.90625 9.5 -16.90625 C 6.476562 -16.90625 5.113281 -14.90625 5.113281 -12.816406 C 5.113281 -10.066406 7.410156 -8.386719 7.410156 -6.636719 C 7.410156 -5.523438 6.636719 -4.75 5.542969 -4.75 C 4.363281 -4.75 3.660156 -5.523438 3.660156 -6.75 C 3.660156 -8 4.453125 -8.042969 4.453125 -8.566406 C 4.453125 -8.90625 4.089844 -9.136719 3.523438 -9.136719 C 2.179688 -9.136719 -0.0898438 -7.953125 -0.0898438 -4.386719 C -0.0898438 -0.886719 2.179688 0.953125 5.160156 0.953125 Z M 5.160156 0.953125 "/></g></g></g><g fill="#c15b75" fill-opacity="1"><g transform="translate(15.264082, 28.952933)"><g><path d="M 1.546875 0 C 3.046875 0 3.339844 -1.25 3.339844 -2.410156 L 3.339844 -3.429688 C 3.339844 -5.453125 4.476562 -7.339844 5.792969 -7.339844 C 6.316406 -7.339844 6.660156 -7.066406 6.660156 -6.542969 C 6.660156 -5.613281 5.589844 -4.089844 5.589844 -2.363281 C 5.589844 -1.089844 6.089844 0 7.589844 0 C 10.65625 0 12.203125 -4.410156 12.929688 -5.660156 C 13.179688 -6.089844 12.273438 -6.773438 11.90625 -6.226562 C 11.453125 -5.542969 11.023438 -5.066406 10.339844 -5.066406 C 9.613281 -5.066406 9.292969 -5.429688 9.292969 -6.203125 C 9.292969 -7.339844 10.023438 -8.066406 10.023438 -9.273438 C 10.023438 -10.40625 9.363281 -11.363281 7.976562 -11.363281 C 6.976562 -11.363281 6.066406 -10.886719 5.226562 -10.066406 C 4.726562 -9.566406 4.363281 -9.65625 4.613281 -10.589844 C 4.886719 -11.65625 5.679688 -12.886719 6.273438 -14.203125 C 6.929688 -15.65625 6.660156 -16.339844 5.726562 -16.339844 C 3.886719 -16.339844 2.839844 -12.863281 0.546875 -6.226562 C 0.0898438 -4.929688 -0.226562 -3.5 -0.226562 -2.339844 C -0.226562 -1 0.226562 0 1.546875 0 Z M 1.546875 0 "/></g></g></g><g fill="#c15b75" fill-opacity="1"><g transform="translate(26.648103, 28.952933)"><g><path d="M 11.339844 -6.226562 C 10.792969 -5.429688 10.179688 -5.113281 9.523438 -5.113281 L 9.363281 -5.113281 C 9.589844 -5.863281 9.703125 -6.660156 9.703125 -7.453125 C 9.703125 -10.316406 8.25 -11.363281 6.386719 -11.363281 C 2.773438 -11.363281 0.136719 -7.226562 0.136719 -3.816406 C 0.136719 -1.453125 1.613281 0 3.660156 0 C 5.363281 0 6.976562 -1 8.113281 -2.546875 L 8.386719 -2.546875 C 10.589844 -2.546875 11.703125 -4.273438 12.363281 -5.660156 C 12.613281 -6.179688 11.613281 -6.613281 11.339844 -6.226562 Z M 4.953125 -4.703125 C 4.089844 -4.703125 3.773438 -5.273438 3.773438 -5.929688 C 3.773438 -6.929688 4.523438 -8.042969 5.636719 -8.042969 C 6.523438 -8.042969 6.886719 -7.5 6.886719 -6.839844 C 6.886719 -5.886719 6.089844 -4.703125 4.953125 -4.703125 Z M 4.953125 -4.703125 "/></g></g></g><g fill="#c15b75" fill-opacity="1"><g transform="translate(37.464063, 28.952933)"><g><path d="M 11.613281 -6.226562 C 11.066406 -5.429688 10.453125 -5.113281 9.792969 -5.113281 C 10.066406 -6 10.226562 -6.929688 10.226562 -7.910156 C 10.226562 -10.042969 9.042969 -11.363281 7.25 -11.363281 C 6.542969 -11.363281 5.816406 -11.226562 5.023438 -10.453125 C 4.660156 -10.089844 4.226562 -10.25 4.296875 -10.589844 C 4.363281 -11 4.179688 -11.363281 3.386719 -11.363281 C 2.226562 -11.363281 2 -10.566406 0.523438 -6.226562 C 0.203125 -5.316406 -0.113281 -4.453125 -0.410156 -3.660156 C -1.566406 -0.683594 -2.613281 1.589844 -2.613281 2.976562 C -2.613281 3.976562 -2.160156 4.546875 -1.023438 4.546875 C 0.589844 4.546875 1.203125 0.773438 1.886719 -2.546875 C 2 -3.113281 2.613281 -3.066406 2.523438 -2.546875 C 2.226562 -0.726562 3.226562 0 4.523438 0 C 5.976562 0 7.453125 -1 8.523438 -2.546875 L 8.660156 -2.546875 C 10.863281 -2.546875 11.976562 -4.273438 12.636719 -5.660156 C 12.886719 -6.179688 11.886719 -6.613281 11.613281 -6.226562 Z M 4.953125 -4.703125 C 4.089844 -4.703125 3.773438 -5.273438 3.773438 -5.929688 C 3.773438 -6.929688 4.523438 -8.042969 5.636719 -8.042969 C 6.523438 -8.042969 6.886719 -7.5 6.886719 -6.839844 C 6.886719 -5.886719 6.089844 -4.703125 4.953125 -4.703125 Z M 4.953125 -4.703125 "/></g></g></g><g fill="#c15b75" fill-opacity="1"><g transform="translate(48.552689, 28.952933)"><g><path d="M 3.589844 -10.316406 C 5.316406 -10.316406 7 -12.179688 7 -14.65625 C 7 -16.179688 6.136719 -17.042969 5.089844 -17.042969 C 4.046875 -17.042969 3.179688 -16.179688 3.179688 -15.136719 C 3.179688 -14.089844 4.023438 -13.453125 4.703125 -13.453125 C 5.273438 -13.453125 5.339844 -13.839844 5.523438 -13.679688 C 5.863281 -13.363281 5.023438 -12.15625 3.046875 -12.476562 C 2.5 -12.566406 2.136719 -12.089844 2.136719 -11.523438 C 2.136719 -10.75 2.796875 -10.316406 3.589844 -10.316406 Z M 3.589844 -10.316406 "/></g></g></g><g fill="#c15b75" fill-opacity="1"><g transform="translate(55.778476, 28.952933)"><g><path d="M 1.433594 0 C 3 0 3.296875 -1.25 3.296875 -2.410156 L 3.296875 -3.429688 C 3.296875 -5.453125 4.429688 -7.339844 5.75 -7.339844 C 6.273438 -7.339844 6.613281 -7.066406 6.613281 -6.542969 C 6.613281 -5.613281 5.660156 -4.089844 5.660156 -2.363281 C 5.660156 -1.089844 6.160156 0 7.589844 0 C 10.65625 0 12.203125 -4.410156 12.929688 -5.660156 C 13.179688 -6.089844 12.273438 -6.773438 11.90625 -6.226562 C 11.453125 -5.542969 11.023438 -5.066406 10.339844 -5.066406 C 9.589844 -5.066406 9.25 -5.429688 9.25 -6.203125 C 9.25 -7.339844 9.976562 -8.066406 9.976562 -9.273438 C 9.976562 -10.40625 9.316406 -11.363281 7.929688 -11.363281 C 6.929688 -11.363281 6.023438 -10.886719 5.179688 -10.066406 C 4.453125 -9.339844 4 -9.613281 4 -10.5 C 4 -10.953125 3.863281 -11.363281 3.25 -11.363281 C 2.410156 -11.363281 1.273438 -8.886719 0.523438 -6.226562 C 0 -4.363281 -0.226562 -2.726562 -0.226562 -1.660156 C -0.226562 -0.703125 0.363281 0 1.433594 0 Z M 1.433594 0 "/></g></g></g><g fill="#c15b75" fill-opacity="1"><g transform="translate(67.162497, 28.952933)"><g/></g></g><g fill="#c15b75" fill-opacity="1"><g transform="translate(75.342631, 28.952933)"><g><path d="M 5.160156 0.953125 C 8.5 0.953125 10.886719 -1.476562 10.886719 -4.863281 C 10.886719 -7.726562 8 -9.726562 8.066406 -11.75 C 8.066406 -12.886719 8.726562 -13.339844 9.476562 -13.339844 C 10.773438 -13.339844 10.636719 -11.726562 10.203125 -11.179688 C 9.886719 -10.773438 10.886719 -10.023438 11.15625 -10.40625 C 12.386719 -11.042969 13.179688 -12.316406 13.179688 -13.679688 C 13.179688 -15.316406 12.15625 -16.90625 9.5 -16.90625 C 6.476562 -16.90625 5.113281 -14.90625 5.113281 -12.816406 C 5.113281 -10.066406 7.410156 -8.386719 7.410156 -6.636719 C 7.410156 -5.523438 6.636719 -4.75 5.542969 -4.75 C 4.363281 -4.75 3.660156 -5.523438 3.660156 -6.75 C 3.660156 -8 4.453125 -8.042969 4.453125 -8.566406 C 4.453125 -8.90625 4.089844 -9.136719 3.523438 -9.136719 C 2.179688 -9.136719 -0.0898438 -7.953125 -0.0898438 -4.386719 C -0.0898438 -0.886719 2.179688 0.953125 5.160156 0.953125 Z M 5.160156 0.953125 "/></g></g></g><g fill="#c15b75" fill-opacity="1"><g transform="translate(87.112936, 28.952933)"><g><path d="M 1.546875 0 C 3.046875 0 3.339844 -1.25 3.339844 -2.410156 L 3.339844 -3.429688 C 3.339844 -5.453125 4.476562 -7.339844 5.792969 -7.339844 C 6.316406 -7.339844 6.660156 -7.066406 6.660156 -6.542969 C 6.660156 -5.613281 5.589844 -4.089844 5.589844 -2.363281 C 5.589844 -1.089844 6.089844 0 7.589844 0 C 10.65625 0 12.203125 -4.410156 12.929688 -5.660156 C 13.179688 -6.089844 12.273438 -6.773438 11.90625 -6.226562 C 11.453125 -5.542969 11.023438 -5.066406 10.339844 -5.066406 C 9.613281 -5.066406 9.292969 -5.429688 9.292969 -6.203125 C 9.292969 -7.339844 10.023438 -8.066406 10.023438 -9.273438 C 10.023438 -10.40625 9.363281 -11.363281 7.976562 -11.363281 C 6.976562 -11.363281 6.066406 -10.886719 5.226562 -10.066406 C 4.726562 -9.566406 4.363281 -9.65625 4.613281 -10.589844 C 4.886719 -11.65625 5.679688 -12.886719 6.273438 -14.203125 C 6.929688 -15.65625 6.660156 -16.339844 5.726562 -16.339844 C 3.886719 -16.339844 2.839844 -12.863281 0.546875 -6.226562 C 0.0898438 -4.929688 -0.226562 -3.5 -0.226562 -2.339844 C -0.226562 -1 0.226562 0 1.546875 0 Z M 1.546875 0 "/></g></g></g><g fill="#c15b75" fill-opacity="1"><g transform="translate(98.496957, 28.952933)"><g><path d="M 4.566406 -12.292969 C 5.75 -12.292969 6.679688 -12.75 6.816406 -14.15625 C 6.929688 -15.566406 6 -16 4.839844 -16 C 3.589844 -16 2.566406 -15.519531 2.566406 -13.90625 C 2.566406 -12.703125 3.476562 -12.292969 4.566406 -12.292969 Z M 2.046875 0 C 4.976562 0 6.429688 -4.453125 7.160156 -5.679688 C 7.386719 -6.089844 6.5 -6.773438 6.136719 -6.226562 C 5.679688 -5.542969 5.25 -5.089844 4.566406 -5.089844 C 3.953125 -5.089844 3.546875 -5.476562 3.546875 -6.226562 C 3.546875 -7.453125 4.566406 -8.953125 4.566406 -10.339844 C 4.566406 -11.066406 4.273438 -11.363281 3.796875 -11.363281 C 2.5 -11.363281 1.566406 -9.523438 0.523438 -6.226562 C 0.183594 -5.136719 -0.046875 -3.910156 -0.046875 -2.839844 C -0.046875 -1.25 0.523438 0 2.046875 0 Z M 2.046875 0 "/></g></g></g><g fill="#c15b75" fill-opacity="1"><g transform="translate(104.08672, 28.952933)"><g><path d="M 11.613281 -6.226562 C 11.066406 -5.429688 10.453125 -5.113281 9.792969 -5.113281 C 10.066406 -6 10.226562 -6.929688 10.226562 -7.910156 C 10.226562 -10.042969 9.042969 -11.363281 7.25 -11.363281 C 6.542969 -11.363281 5.816406 -11.226562 5.023438 -10.453125 C 4.660156 -10.089844 4.226562 -10.25 4.296875 -10.589844 C 4.363281 -11 4.179688 -11.363281 3.386719 -11.363281 C 2.226562 -11.363281 2 -10.566406 0.523438 -6.226562 C 0.203125 -5.316406 -0.113281 -4.453125 -0.410156 -3.660156 C -1.566406 -0.683594 -2.613281 1.589844 -2.613281 2.976562 C -2.613281 3.976562 -2.160156 4.546875 -1.023438 4.546875 C 0.589844 4.546875 1.203125 0.773438 1.886719 -2.546875 C 2 -3.113281 2.613281 -3.066406 2.523438 -2.546875 C 2.226562 -0.726562 3.226562 0 4.523438 0 C 5.976562 0 7.453125 -1 8.523438 -2.546875 L 8.660156 -2.546875 C 10.863281 -2.546875 11.976562 -4.273438 12.636719 -5.660156 C 12.886719 -6.179688 11.886719 -6.613281 11.613281 -6.226562 Z M 4.953125 -4.703125 C 4.089844 -4.703125 3.773438 -5.273438 3.773438 -5.929688 C 3.773438 -6.929688 4.523438 -8.042969 5.636719 -8.042969 C 6.523438 -8.042969 6.886719 -7.5 6.886719 -6.839844 C 6.886719 -5.886719 6.089844 -4.703125 4.953125 -4.703125 Z M 4.953125 -4.703125 "/></g></g></g><g fill="#ff3131" fill-opacity="1"><g transform="translate(2.690274, 28.14943)"><g><path d="M 5.160156 0.953125 C 8.5 0.953125 10.886719 -1.476562 10.886719 -4.863281 C 10.886719 -7.726562 8 -9.726562 8.066406 -11.75 C 8.066406 -12.886719 8.726562 -13.339844 9.476562 -13.339844 C 10.773438 -13.339844 10.636719 -11.726562 10.203125 -11.179688 C 9.886719 -10.773438 10.886719 -10.023438 11.15625 -10.40625 C 12.386719 -11.042969 13.179688 -12.316406 13.179688 -13.679688 C 13.179688 -15.316406 12.15625 -16.90625 9.5 -16.90625 C 6.476562 -16.90625 5.113281 -14.90625 5.113281 -12.816406 C 5.113281 -10.066406 7.410156 -8.386719 7.410156 -6.636719 C 7.410156 -5.523438 6.636719 -4.75 5.542969 -4.75 C 4.363281 -4.75 3.660156 -5.523438 3.660156 -6.75 C 3.660156 -8 4.453125 -8.042969 4.453125 -8.566406 C 4.453125 -8.90625 4.089844 -9.136719 3.523438 -9.136719 C 2.179688 -9.136719 -0.0898438 -7.953125 -0.0898438 -4.386719 C -0.0898438 -0.886719 2.179688 0.953125 5.160156 0.953125 Z M 5.160156 0.953125 "/></g></g></g><g fill="#ff3131" fill-opacity="1"><g transform="translate(14.460579, 28.14943)"><g><path d="M 1.546875 0 C 3.046875 0 3.339844 -1.25 3.339844 -2.410156 L 3.339844 -3.429688 C 3.339844 -5.453125 4.476562 -7.339844 5.792969 -7.339844 C 6.316406 -7.339844 6.660156 -7.066406 6.660156 -6.542969 C 6.660156 -5.613281 5.589844 -4.089844 5.589844 -2.363281 C 5.589844 -1.089844 6.089844 0 7.589844 0 C 10.65625 0 12.203125 -4.410156 12.929688 -5.660156 C 13.179688 -6.089844 12.273438 -6.773438 11.90625 -6.226562 C 11.453125 -5.542969 11.023438 -5.066406 10.339844 -5.066406 C 9.613281 -5.066406 9.292969 -5.429688 9.292969 -6.203125 C 9.292969 -7.339844 10.023438 -8.066406 10.023438 -9.273438 C 10.023438 -10.40625 9.363281 -11.363281 7.976562 -11.363281 C 6.976562 -11.363281 6.066406 -10.886719 5.226562 -10.066406 C 4.726562 -9.566406 4.363281 -9.65625 4.613281 -10.589844 C 4.886719 -11.65625 5.679688 -12.886719 6.273438 -14.203125 C 6.929688 -15.65625 6.660156 -16.339844 5.726562 -16.339844 C 3.886719 -16.339844 2.839844 -12.863281 0.546875 -6.226562 C 0.0898438 -4.929688 -0.226562 -3.5 -0.226562 -2.339844 C -0.226562 -1 0.226562 0 1.546875 0 Z M 1.546875 0 "/></g></g></g><g fill="#ff3131" fill-opacity="1"><g transform="translate(25.8446, 28.14943)"><g><path d="M 11.339844 -6.226562 C 10.792969 -5.429688 10.179688 -5.113281 9.523438 -5.113281 L 9.363281 -5.113281 C 9.589844 -5.863281 9.703125 -6.660156 9.703125 -7.453125 C 9.703125 -10.316406 8.25 -11.363281 6.386719 -11.363281 C 2.773438 -11.363281 0.136719 -7.226562 0.136719 -3.816406 C 0.136719 -1.453125 1.613281 0 3.660156 0 C 5.363281 0 6.976562 -1 8.113281 -2.546875 L 8.386719 -2.546875 C 10.589844 -2.546875 11.703125 -4.273438 12.363281 -5.660156 C 12.613281 -6.179688 11.613281 -6.613281 11.339844 -6.226562 Z M 4.953125 -4.703125 C 4.089844 -4.703125 3.773438 -5.273438 3.773438 -5.929688 C 3.773438 -6.929688 4.523438 -8.042969 5.636719 -8.042969 C 6.523438 -8.042969 6.886719 -7.5 6.886719 -6.839844 C 6.886719 -5.886719 6.089844 -4.703125 4.953125 -4.703125 Z M 4.953125 -4.703125 "/></g></g></g><g fill="#ff3131" fill-opacity="1"><g transform="translate(36.660559, 28.14943)"><g><path d="M 11.613281 -6.226562 C 11.066406 -5.429688 10.453125 -5.113281 9.792969 -5.113281 C 10.066406 -6 10.226562 -6.929688 10.226562 -7.910156 C 10.226562 -10.042969 9.042969 -11.363281 7.25 -11.363281 C 6.542969 -11.363281 5.816406 -11.226562 5.023438 -10.453125 C 4.660156 -10.089844 4.226562 -10.25 4.296875 -10.589844 C 4.363281 -11 4.179688 -11.363281 3.386719 -11.363281 C 2.226562 -11.363281 2 -10.566406 0.523438 -6.226562 C 0.203125 -5.316406 -0.113281 -4.453125 -0.410156 -3.660156 C -1.566406 -0.683594 -2.613281 1.589844 -2.613281 2.976562 C -2.613281 3.976562 -2.160156 4.546875 -1.023438 4.546875 C 0.589844 4.546875 1.203125 0.773438 1.886719 -2.546875 C 2 -3.113281 2.613281 -3.066406 2.523438 -2.546875 C 2.226562 -0.726562 3.226562 0 4.523438 0 C 5.976562 0 7.453125 -1 8.523438 -2.546875 L 8.660156 -2.546875 C 10.863281 -2.546875 11.976562 -4.273438 12.636719 -5.660156 C 12.886719 -6.179688 11.886719 -6.613281 11.613281 -6.226562 Z M 4.953125 -4.703125 C 4.089844 -4.703125 3.773438 -5.273438 3.773438 -5.929688 C 3.773438 -6.929688 4.523438 -8.042969 5.636719 -8.042969 C 6.523438 -8.042969 6.886719 -7.5 6.886719 -6.839844 C 6.886719 -5.886719 6.089844 -4.703125 4.953125 -4.703125 Z M 4.953125 -4.703125 "/></g></g></g><g fill="#ff3131" fill-opacity="1"><g transform="translate(47.749185, 28.14943)"><g><path d="M 3.589844 -10.316406 C 5.316406 -10.316406 7 -12.179688 7 -14.65625 C 7 -16.179688 6.136719 -17.042969 5.089844 -17.042969 C 4.046875 -17.042969 3.179688 -16.179688 3.179688 -15.136719 C 3.179688 -14.089844 4.023438 -13.453125 4.703125 -13.453125 C 5.273438 -13.453125 5.339844 -13.839844 5.523438 -13.679688 C 5.863281 -13.363281 5.023438 -12.15625 3.046875 -12.476562 C 2.5 -12.566406 2.136719 -12.089844 2.136719 -11.523438 C 2.136719 -10.75 2.796875 -10.316406 3.589844 -10.316406 Z M 3.589844 -10.316406 "/></g></g></g><g fill="#ff3131" fill-opacity="1"><g transform="translate(54.974973, 28.14943)"><g><path d="M 1.433594 0 C 3 0 3.296875 -1.25 3.296875 -2.410156 L 3.296875 -3.429688 C 3.296875 -5.453125 4.429688 -7.339844 5.75 -7.339844 C 6.273438 -7.339844 6.613281 -7.066406 6.613281 -6.542969 C 6.613281 -5.613281 5.660156 -4.089844 5.660156 -2.363281 C 5.660156 -1.089844 6.160156 0 7.589844 0 C 10.65625 0 12.203125 -4.410156 12.929688 -5.660156 C 13.179688 -6.089844 12.273438 -6.773438 11.90625 -6.226562 C 11.453125 -5.542969 11.023438 -5.066406 10.339844 -5.066406 C 9.589844 -5.066406 9.25 -5.429688 9.25 -6.203125 C 9.25 -7.339844 9.976562 -8.066406 9.976562 -9.273438 C 9.976562 -10.40625 9.316406 -11.363281 7.929688 -11.363281 C 6.929688 -11.363281 6.023438 -10.886719 5.179688 -10.066406 C 4.453125 -9.339844 4 -9.613281 4 -10.5 C 4 -10.953125 3.863281 -11.363281 3.25 -11.363281 C 2.410156 -11.363281 1.273438 -8.886719 0.523438 -6.226562 C 0 -4.363281 -0.226562 -2.726562 -0.226562 -1.660156 C -0.226562 -0.703125 0.363281 0 1.433594 0 Z M 1.433594 0 "/></g></g></g><g fill="#ff3131" fill-opacity="1"><g transform="translate(66.358994, 28.14943)"><g/></g></g><g fill="#ff3131" fill-opacity="1"><g transform="translate(74.539127, 28.14943)"><g><path d="M 5.160156 0.953125 C 8.5 0.953125 10.886719 -1.476562 10.886719 -4.863281 C 10.886719 -7.726562 8 -9.726562 8.066406 -11.75 C 8.066406 -12.886719 8.726562 -13.339844 9.476562 -13.339844 C 10.773438 -13.339844 10.636719 -11.726562 10.203125 -11.179688 C 9.886719 -10.773438 10.886719 -10.023438 11.15625 -10.40625 C 12.386719 -11.042969 13.179688 -12.316406 13.179688 -13.679688 C 13.179688 -15.316406 12.15625 -16.90625 9.5 -16.90625 C 6.476562 -16.90625 5.113281 -14.90625 5.113281 -12.816406 C 5.113281 -10.066406 7.410156 -8.386719 7.410156 -6.636719 C 7.410156 -5.523438 6.636719 -4.75 5.542969 -4.75 C 4.363281 -4.75 3.660156 -5.523438 3.660156 -6.75 C 3.660156 -8 4.453125 -8.042969 4.453125 -8.566406 C 4.453125 -8.90625 4.089844 -9.136719 3.523438 -9.136719 C 2.179688 -9.136719 -0.0898438 -7.953125 -0.0898438 -4.386719 C -0.0898438 -0.886719 2.179688 0.953125 5.160156 0.953125 Z M 5.160156 0.953125 "/></g></g></g><g fill="#ff3131" fill-opacity="1"><g transform="translate(86.309432, 28.14943)"><g><path d="M 1.546875 0 C 3.046875 0 3.339844 -1.25 3.339844 -2.410156 L 3.339844 -3.429688 C 3.339844 -5.453125 4.476562 -7.339844 5.792969 -7.339844 C 6.316406 -7.339844 6.660156 -7.066406 6.660156 -6.542969 C 6.660156 -5.613281 5.589844 -4.089844 5.589844 -2.363281 C 5.589844 -1.089844 6.089844 0 7.589844 0 C 10.65625 0 12.203125 -4.410156 12.929688 -5.660156 C 13.179688 -6.089844 12.273438 -6.773438 11.90625 -6.226562 C 11.453125 -5.542969 11.023438 -5.066406 10.339844 -5.066406 C 9.613281 -5.066406 9.292969 -5.429688 9.292969 -6.203125 C 9.292969 -7.339844 10.023438 -8.066406 10.023438 -9.273438 C 10.023438 -10.40625 9.363281 -11.363281 7.976562 -11.363281 C 6.976562 -11.363281 6.066406 -10.886719 5.226562 -10.066406 C 4.726562 -9.566406 4.363281 -9.65625 4.613281 -10.589844 C 4.886719 -11.65625 5.679688 -12.886719 6.273438 -14.203125 C 6.929688 -15.65625 6.660156 -16.339844 5.726562 -16.339844 C 3.886719 -16.339844 2.839844 -12.863281 0.546875 -6.226562 C 0.0898438 -4.929688 -0.226562 -3.5 -0.226562 -2.339844 C -0.226562 -1 0.226562 0 1.546875 0 Z M 1.546875 0 "/></g></g></g><g fill="#ff3131" fill-opacity="1"><g transform="translate(97.693453, 28.14943)"><g><path d="M 4.566406 -12.292969 C 5.75 -12.292969 6.679688 -12.75 6.816406 -14.15625 C 6.929688 -15.566406 6 -16 4.839844 -16 C 3.589844 -16 2.566406 -15.519531 2.566406 -13.90625 C 2.566406 -12.703125 3.476562 -12.292969 4.566406 -12.292969 Z M 2.046875 0 C 4.976562 0 6.429688 -4.453125 7.160156 -5.679688 C 7.386719 -6.089844 6.5 -6.773438 6.136719 -6.226562 C 5.679688 -5.542969 5.25 -5.089844 4.566406 -5.089844 C 3.953125 -5.089844 3.546875 -5.476562 3.546875 -6.226562 C 3.546875 -7.453125 4.566406 -8.953125 4.566406 -10.339844 C 4.566406 -11.066406 4.273438 -11.363281 3.796875 -11.363281 C 2.5 -11.363281 1.566406 -9.523438 0.523438 -6.226562 C 0.183594 -5.136719 -0.046875 -3.910156 -0.046875 -2.839844 C -0.046875 -1.25 0.523438 0 2.046875 0 Z M 2.046875 0 "/></g></g></g><g fill="#ff3131" fill-opacity="1"><g transform="translate(103.283216, 28.14943)"><g><path d="M 11.613281 -6.226562 C 11.066406 -5.429688 10.453125 -5.113281 9.792969 -5.113281 C 10.066406 -6 10.226562 -6.929688 10.226562 -7.910156 C 10.226562 -10.042969 9.042969 -11.363281 7.25 -11.363281 C 6.542969 -11.363281 5.816406 -11.226562 5.023438 -10.453125 C 4.660156 -10.089844 4.226562 -10.25 4.296875 -10.589844 C 4.363281 -11 4.179688 -11.363281 3.386719 -11.363281 C 2.226562 -11.363281 2 -10.566406 0.523438 -6.226562 C 0.203125 -5.316406 -0.113281 -4.453125 -0.410156 -3.660156 C -1.566406 -0.683594 -2.613281 1.589844 -2.613281 2.976562 C -2.613281 3.976562 -2.160156 4.546875 -1.023438 4.546875 C 0.589844 4.546875 1.203125 0.773438 1.886719 -2.546875 C 2 -3.113281 2.613281 -3.066406 2.523438 -2.546875 C 2.226562 -0.726562 3.226562 0 4.523438 0 C 5.976562 0 7.453125 -1 8.523438 -2.546875 L 8.660156 -2.546875 C 10.863281 -2.546875 11.976562 -4.273438 12.636719 -5.660156 C 12.886719 -6.179688 11.886719 -6.613281 11.613281 -6.226562 Z M 4.953125 -4.703125 C 4.089844 -4.703125 3.773438 -5.273438 3.773438 -5.929688 C 3.773438 -6.929688 4.523438 -8.042969 5.636719 -8.042969 C 6.523438 -8.042969 6.886719 -7.5 6.886719 -6.839844 C 6.886719 -5.886719 6.089844 -4.703125 4.953125 -4.703125 Z M 4.953125 -4.703125 "/></g></g></g></svg>